<?xml version="1.0" encoding="UTF-8"?>
<svg version="1.1" xmlns="http://www.w3.org/2000/svg" width="24" height="24">
<path d="M0 0 C2.23046875 0.0703125 2.23046875 0.0703125 5 1 C6.69057826 3.30721152 7.99642444 5.37270833 9.3125 7.875 C9.67150391 8.51308594 10.03050781 9.15117187 10.40039062 9.80859375 C11.99663721 12.72136371 13 14.63211413 13 18 C5.74 18 -1.52 18 -9 18 C-8.04162319 13.20811595 -6.51476179 10.18025272 -3.9375 6.1875 C-3.56044922 5.59001953 -3.18339844 4.99253906 -2.79492188 4.37695312 C-1.87010434 2.91363423 -0.93597935 1.45620477 0 0 Z M1 7 C1 7.99 1 8.98 1 10 C1.66 10 2.32 10 3 10 C3 9.01 3 8.02 3 7 C2.34 7 1.68 7 1 7 Z " fill="#FF0000" transform="translate(10,3)"/>
</svg>
